<svg width="80" height="80" viewBox="0 0 80 80" fill="none" xmlns="http://www.w3.org/2000/svg">
<circle cx="40" cy="40" r="39.25" stroke="black" stroke-width="1.5"/>
<path d="M39.9919 80C29.3155 80 19.2566 75.8399 11.7002 68.2836C4.16006 60.7272 0 50.6845 0 39.9919C0 29.2992 4.16006 19.2728 11.7164 11.7164C19.2728 4.16006 29.3155 0 39.9919 0C50.6683 0 60.7272 4.16006 68.2836 11.7164C75.8399 19.2728 80 29.3155 80 40.0081C80 50.7008 75.8399 60.7435 68.2836 68.2998C60.7272 75.8399 50.6845 80 39.9919 80ZM39.9919 1.10502C29.608 1.10502 19.8416 5.15133 12.4964 12.4964C5.15133 19.8416 1.10502 29.608 1.10502 39.9919C1.10502 50.3758 5.15133 60.1422 12.4964 67.4873C19.8416 74.8324 29.608 78.8787 39.9919 78.8787C50.3758 78.8787 60.1422 74.8324 67.4873 67.4873C74.8324 60.1422 78.8787 50.3758 78.8787 39.9919C78.8787 29.608 74.8324 19.8416 67.4873 12.4964C60.1584 5.15133 50.392 1.10502 39.9919 1.10502Z" fill="black"/>
<path d="M27.7238 52.57C24.9126 52.31 22.2638 51.985 19.7937 51.5787C19.7612 50.7337 19.7287 49.8887 19.6962 49.0437C21.435 49.3199 23.2713 49.5637 25.1888 49.7749L25.1401 46.9799C23.2225 46.7686 21.3862 46.5249 19.6312 46.2324C19.615 45.3711 19.5987 44.4936 19.5825 43.6323C22.0688 44.0386 24.75 44.3798 27.5776 44.6399C27.5613 43.5836 27.5613 42.5111 27.5613 41.4548C24.7338 41.1948 22.0525 40.8698 19.5662 40.4473C19.3387 40.4148 19.1112 40.366 18.8837 40.3335C18.835 40.3173 18.77 40.3173 18.7212 40.301C17.9899 40.171 17.2749 40.041 16.5762 39.8948C16.5762 39.911 16.5762 39.9598 16.5762 39.9923C16.5762 41.016 16.5762 42.0561 16.5762 43.0798H16.5924C16.6412 46.8174 16.7549 50.4899 16.9499 54.0812C17.5999 54.2112 18.2499 54.325 18.9325 54.4388C19.2575 54.5038 19.5825 54.5525 19.9237 54.6013C22.3775 54.9913 25.0263 55.3325 27.7888 55.56C27.7726 54.585 27.7401 53.5775 27.7238 52.57Z" fill="black"/>
<path d="M71.6802 37.9608C69.3401 37.7983 66.6263 40.3983 66.3176 45.4522C66.0738 49.6935 67.1301 52.261 69.3564 52.391C72.0864 52.5535 74.6702 49.7097 74.9302 44.4446C75.1415 40.4958 73.7277 38.107 71.6802 37.9608ZM72.9152 45.5172C72.6714 47.9384 71.7452 49.5797 70.4289 49.5797C69.6326 49.5797 68.8201 48.6697 69.0151 45.1759C69.1776 42.3321 70.2664 40.8696 71.3877 40.8696C72.5577 40.8858 73.2077 42.5596 72.9152 45.5172Z" fill="black"/>
<path d="M9.53941 49.1891L15.2107 42.7865C15.2107 41.8602 15.2107 40.9177 15.2107 39.9915C15.2107 39.8777 15.2107 39.7314 15.2107 39.6014C11.8307 38.8539 8.93815 37.9764 6.64687 37.0664C6.63062 37.9764 6.63062 38.9839 6.63062 39.9915C6.63062 40.0402 6.63062 40.089 6.63062 40.154C8.19064 40.8365 10.0269 41.4702 12.107 42.0227L6.80937 48.1328C6.85812 49.1566 6.90687 50.1966 6.95562 51.1229C9.29566 52.1791 12.2207 53.0567 15.5845 53.7717C15.5358 52.7641 15.4708 51.7566 15.4383 50.7654C13.277 50.3104 11.2944 49.7741 9.53941 49.1891Z" fill="black"/>
<path d="M42.4464 46.3135C42.4464 43.7785 40.8214 42.121 37.3763 42.0072C35.6538 41.9585 33.2812 41.861 30.9899 41.7147C30.3887 41.666 29.7874 41.6335 29.1699 41.5847C29.1699 46.3948 29.2349 51.1236 29.3812 55.6899C30.5024 55.7549 31.6562 55.8362 32.6637 55.9012C32.6312 54.0649 32.5987 52.2124 32.5662 50.3274C32.7937 50.3436 33.0212 50.3599 33.2325 50.3761L38.9526 56.0962C39.4238 56.0962 39.9113 56.0962 40.3663 56.0962C41.4226 56.0962 42.4789 56.0962 43.3564 56.0799L37.7176 50.5549C40.8376 50.5549 42.4464 48.8161 42.4464 46.3135ZM38.7901 46.476C38.7901 47.1911 38.3351 47.7273 36.97 47.7436C35.8 47.7598 34.2075 47.6948 32.5337 47.5811C32.5175 46.7198 32.5175 45.8585 32.5175 44.981C34.24 45.0623 35.865 45.1273 36.97 45.1598C38.2863 45.2085 38.7901 45.761 38.7901 46.476Z" fill="black"/>
<path d="M51.2702 41.438C46.7201 41.438 43.7788 44.2818 43.7788 49.0919C43.7788 53.7557 46.6551 55.7382 50.0677 55.7382C54.3902 55.7382 57.4128 52.9432 57.4128 47.9868C57.429 44.0218 55.024 41.438 51.2702 41.438ZM53.9515 48.7994C53.8377 51.4319 52.4402 52.9919 50.4577 52.9919C48.8489 52.9919 47.4514 51.7894 47.5814 48.5231C47.6951 45.7931 49.1089 44.3793 51.0752 44.3793C52.9277 44.3793 54.0977 45.8581 53.9515 48.7994Z" fill="black"/>
<path d="M58.5989 43.9732C58.5826 45.5007 58.5501 47.0283 58.4851 48.5395L61.7839 44.7045C61.7189 48.0195 61.6214 51.2858 61.4589 54.4709C62.4177 54.3084 63.3764 54.1296 64.2864 53.9509C64.5465 49.4333 64.6927 44.7695 64.6927 40.0082C64.6927 39.9432 64.6927 39.8457 64.6927 39.7644C63.7827 39.9594 62.8239 40.1219 61.8489 40.3169L58.5989 43.9732Z" fill="black"/>
</svg>
