<svg width="40" height="40" viewBox="0 0 40 40" fill="none" xmlns="http://www.w3.org/2000/svg">
<circle cx="20" cy="20" r="18" fill="white" stroke="black" stroke-width="4"/>
<path fill-rule="evenodd" clip-rule="evenodd" d="M20 3C10.6132 3 3 10.6103 3 20C3 29.3882 10.6132 37 20 37C29.3882 37 37 29.3882 37 20C37 10.6103 29.3882 3 20 3ZM24.6013 28.993L24.0757 27.1584L25.3451 28.3385L26.545 29.4492L28.6771 31.3333V13.5428C28.6771 12.4123 27.7648 11.5 26.6442 11.5H13.3558C12.2352 11.5 11.3229 12.4123 11.3229 13.5428V26.9502C11.3229 28.0807 12.2352 28.993 13.3558 28.993H24.6013V28.993ZM22.8163 24.4512L22.1618 23.6479C23.4609 23.281 23.9567 22.4678 23.9567 22.4678C23.5502 22.7356 23.1634 22.924 22.8163 23.0529C22.3205 23.2612 21.8445 23.4 21.3784 23.4793C20.4264 23.6578 19.5537 23.6082 18.81 23.4694C18.2447 23.3603 17.7588 23.2017 17.3522 23.043C17.1242 22.9537 16.8762 22.8447 16.6283 22.7058L16.5887 22.6832L16.5787 22.6789L16.5391 22.6562L16.4994 22.6265L16.2217 22.4579C16.2217 22.4579 16.6977 23.2512 17.9572 23.6281L17.2927 24.4512C15.1012 24.3817 14.2682 22.9438 14.2682 22.9438C14.2682 19.7507 15.6962 17.1624 15.6962 17.1624C17.1242 16.0914 18.4827 16.1212 18.4827 16.1212L18.5819 16.2402C16.7969 16.7558 15.9738 17.5392 15.9738 17.5392L16.5589 17.2517C17.62 16.7856 18.4629 16.6567 18.81 16.6269L18.9786 16.6071C19.5835 16.5277 20.2677 16.5079 20.9817 16.5872C21.9238 16.6963 22.9353 16.974 23.9667 17.5392C23.9667 17.5392 23.1832 16.7955 21.4974 16.2798L21.6362 16.1212C21.6362 16.1212 22.9948 16.0914 24.4228 17.1624C24.4228 17.1624 25.8508 19.7507 25.8508 22.9438C25.8508 22.9438 25.0391 24.3279 22.8163 24.4512V24.4512ZM21.8247 19.8201C21.2594 19.8201 20.8132 20.3159 20.8132 20.9208C20.8132 21.5257 21.2693 22.0216 21.8247 22.0216C22.3899 22.0216 22.8362 21.5257 22.8362 20.9208C22.8362 20.3159 22.3899 19.8201 21.8247 19.8201ZM18.2051 19.8201C17.6398 19.8201 17.1936 20.3159 17.1936 20.9208C17.1936 21.5257 17.6497 22.0216 18.2051 22.0216C18.7703 22.0216 19.2166 21.5257 19.2166 20.9208C19.2265 20.3159 18.7703 19.8201 18.2051 19.8201Z" fill="black"/>
</svg>
