<svg width="40" height="40" viewBox="0 0 40 40" fill="none" xmlns="http://www.w3.org/2000/svg">
<circle cx="20" cy="20" r="18" fill="white" stroke="black" stroke-width="4"/>
<path d="M20 3C10.6117 3 3 10.6117 3 20C3 29.3882 10.6117 37 20 37C29.3882 37 37 29.3882 37 20C37 10.6117 29.3882 3 20 3ZM24.25 14.3333H22.3375C21.5753 14.3333 21.4167 14.6464 21.4167 15.4355V17.1667H24.25L23.9539 20H21.4167V29.9167H17.1667V20H14.3333V17.1667H17.1667V13.897C17.1667 11.3909 18.4856 10.0833 21.4577 10.0833H24.25V14.3333Z" fill="black"/>
</svg>
