<svg width="30" height="30" viewBox="0 0 30 30" fill="none" xmlns="http://www.w3.org/2000/svg">
<path fill-rule="evenodd" clip-rule="evenodd" d="M15.2745 12.9999V17.7999H23.0866C22.7718 19.8579 20.7253 23.8399 15.2745 23.8399C10.5715 23.8399 6.73431 19.8819 6.73431 14.9999C6.73431 10.1199 10.5715 6.15988 15.2745 6.15988C17.9507 6.15988 19.7414 7.31988 20.7646 8.31988L24.5034 4.65988C22.1027 2.37988 18.9936 0.999878 15.2745 0.999878C7.65917 0.999878 1.5 7.25988 1.5 14.9999C1.5 22.7399 7.65917 28.9999 15.2745 28.9999C23.2244 28.9999 28.5 23.3199 28.5 15.3199C28.5 14.3999 28.3996 13.6999 28.2816 12.9999H15.2745Z" fill="white"/>
</svg>
