<svg width="40" height="40" viewBox="0 0 40 40" fill="none" xmlns="http://www.w3.org/2000/svg">
<circle cx="20" cy="20" r="18" fill="white" stroke="black" stroke-width="4"/>
<path d="M24.0078 11.9278C22.9623 11.8797 22.6477 11.8712 20 11.8712C17.3522 11.8712 17.0392 11.8811 15.9937 11.9278C13.3034 12.0511 12.0511 13.3247 11.9278 15.9937C11.8811 17.0392 11.8697 17.3522 11.8697 20C11.8697 22.6477 11.8811 22.9608 11.9278 24.0078C12.0511 26.6697 13.2977 27.9503 15.9937 28.0736C17.0377 28.1203 17.3522 28.1317 20 28.1317C22.6492 28.1317 22.9623 28.1217 24.0078 28.0736C26.698 27.9517 27.9489 26.6739 28.0736 24.0078C28.1203 22.9623 28.1302 22.6477 28.1302 20C28.1302 17.3522 28.1203 17.0392 28.0736 15.9937C27.9489 13.3261 26.6952 12.0511 24.0078 11.9278V11.9278ZM20 25.0929C17.1879 25.0929 14.9071 22.8135 14.9071 20C14.9071 17.1879 17.1879 14.9085 20 14.9085C22.8121 14.9085 25.0929 17.1879 25.0929 20C25.0929 22.8121 22.8121 25.0929 20 25.0929ZM25.2941 15.8973C24.6368 15.8973 24.1041 15.3647 24.1041 14.7073C24.1041 14.05 24.6368 13.5173 25.2941 13.5173C25.9514 13.5173 26.4841 14.05 26.4841 14.7073C26.4841 15.3632 25.9514 15.8973 25.2941 15.8973V15.8973ZM23.3051 20C23.3051 21.8261 21.8247 23.3051 20 23.3051C18.1753 23.3051 16.6949 21.8261 16.6949 20C16.6949 18.1739 18.1753 16.6949 20 16.6949C21.8247 16.6949 23.3051 18.1739 23.3051 20ZM20 3C10.6117 3 3 10.6117 3 20C3 29.3882 10.6117 37 20 37C29.3882 37 37 29.3882 37 20C37 10.6117 29.3882 3 20 3ZM29.8572 24.0885C29.6942 27.6939 27.6868 29.6914 24.0899 29.8572C23.0317 29.9053 22.6931 29.9167 20 29.9167C17.3069 29.9167 16.9698 29.9053 15.9115 29.8572C12.3075 29.6914 10.3086 27.6911 10.1428 24.0885C10.0947 23.0317 10.0833 22.6931 10.0833 20C10.0833 17.3069 10.0947 16.9698 10.1428 15.9115C10.3086 12.3075 12.3089 10.3086 15.9115 10.1443C16.9698 10.0947 17.3069 10.0833 20 10.0833C22.6931 10.0833 23.0317 10.0947 24.0899 10.1443C27.6953 10.31 29.6957 12.3146 29.8572 15.9115C29.9053 16.9698 29.9167 17.3069 29.9167 20C29.9167 22.6931 29.9053 23.0317 29.8572 24.0885Z" fill="black"/>
</svg>
