<svg width="40" height="40" viewBox="0 0 40 40" fill="none" xmlns="http://www.w3.org/2000/svg">
<circle cx="20" cy="20" r="18" fill="white" stroke="black" stroke-width="4"/>
<path d="M20 3C10.6117 3 3 10.6117 3 20C3 29.3882 10.6117 37 20 37C29.3882 37 37 29.3882 37 20C37 10.6117 29.3882 3 20 3ZM28.5935 16.6638C28.8527 22.3871 24.5843 28.7677 17.0278 28.7677C14.73 28.7677 12.5922 28.0934 10.7917 26.9388C12.9507 27.1938 15.1054 26.5932 16.8153 25.2544C15.036 25.2218 13.5329 24.0446 13.013 22.4282C13.6519 22.55 14.2809 22.5146 14.8518 22.3587C12.8954 21.9649 11.5439 20.2026 11.5878 18.317C12.1375 18.6216 12.7637 18.8043 13.4309 18.8256C11.619 17.6143 11.1062 15.2216 12.1715 13.3927C14.1775 15.8548 17.1766 17.4741 20.5582 17.6441C19.9646 15.0997 21.8955 12.6475 24.5234 12.6475C25.6922 12.6475 26.7504 13.1419 27.4927 13.9324C28.4192 13.7511 29.2919 13.4111 30.0768 12.945C29.7722 13.8956 29.1276 14.6917 28.2875 15.1961C29.1106 15.0969 29.8954 14.8787 30.6236 14.5543C30.0796 15.3732 29.3911 16.09 28.5935 16.6638V16.6638Z" fill="black"/>
</svg>
